<svg width="47" height="36" viewBox="0 0 47 36" fill="none" xmlns="http://www.w3.org/2000/svg">
<path d="M38 1.00024C42.5 9.50024 41.5 10.5002 38 11.5002" stroke="black" stroke-width="2" stroke-linecap="round"/>
<path d="M38.0117 1.00024C33.5117 9.50024 34.5001 10.5002 38.0001 11.5002" stroke="black" stroke-width="2" stroke-linecap="round"/>
<path d="M13.0054 10.0002C17.5054 18.5002 16.5054 19.5002 13.0054 20.5002" stroke="black" stroke-width="2" stroke-linecap="round"/>
<path d="M13.0168 10.0002C8.51685 18.5002 9.50522 19.5002 13.0052 20.5002" stroke="black" stroke-width="2" stroke-linecap="round"/>
<path d="M30.0054 24.0002C34.5054 32.5002 33.5054 33.5002 30.0054 34.5002" stroke="black" stroke-width="2" stroke-linecap="round"/>
<path d="M30.0168 24.0002C25.5168 32.5002 26.5052 33.5002 30.0052 34.5002" stroke="black" stroke-width="2" stroke-linecap="round"/>
<path d="M1.5 15.5002C6 15.0002 6.5 19.5001 10 16.5001" stroke="black" stroke-width="2" stroke-linecap="round"/>
<path d="M23 15.0394C27.5 14.5002 27.5 20.0001 33.5 15.5002" stroke="black" stroke-width="2" stroke-linecap="round"/>
<path d="M33.5 15.5002C37 13.0003 39 19.5002 42.5 16.5002" stroke="black" stroke-width="2" stroke-linecap="round"/>
<path d="M42.5 16.5002C43.5 15.5002 44.5 15.5002 46 15.5002" stroke="black" stroke-width="2" stroke-linecap="round"/>
<path d="M24.5 15.0394C20 14.5395 19.5 19.5001 16 16.5001" stroke="black" stroke-width="2" stroke-linecap="round"/>
<path d="M1 21.5858C5.5 21.0859 6.5 25.5002 10 22.5002" stroke="black" stroke-width="2" stroke-linecap="round"/>
<path d="M22.5 21.1253C27 20.5861 27 26.0861 33 21.5861" stroke="black" stroke-width="2" stroke-linecap="round"/>
<path d="M33 21.5859C36.5 19.086 38.5 25.5859 42 22.5859" stroke="black" stroke-width="2" stroke-linecap="round"/>
<path d="M42 22.5859C43 21.5859 44 21.5859 45.5 21.5859" stroke="black" stroke-width="2" stroke-linecap="round"/>
<path d="M24 21.1253C19.5 20.6254 19 25.5861 15.5 22.5861" stroke="black" stroke-width="2" stroke-linecap="round"/>
<path d="M10.0001 22.5C12.0001 21.0001 14.5001 21.5001 16.0001 23.0001" stroke="black" stroke-width="2" stroke-linecap="round"/>
<path d="M1 28.5858C5.5 28.0859 6.5 32.5002 10 29.5002" stroke="black" stroke-width="2" stroke-linecap="round"/>
<path d="M32.5 29.0001C36 26.5002 38.5 32.5858 42 29.5858" stroke="black" stroke-width="2" stroke-linecap="round"/>
<path d="M42 29.5859C43 28.5859 44 28.5859 45.5 28.5859" stroke="black" stroke-width="2" stroke-linecap="round"/>
<path d="M24 28.0002C19.5 27.5003 19 32.5859 15.5 29.5859" stroke="black" stroke-width="2" stroke-linecap="round"/>
<path d="M10.0001 29.5C12.0001 28.0001 14.5001 28.5001 16.0001 30.0001" stroke="black" stroke-width="2" stroke-linecap="round"/>
<path d="M23.5 28.0001C25 28.0001 26.3509 28.926 27 30.0001" stroke="black" stroke-width="2" stroke-linecap="round"/>
</svg>
