<svg width="74" height="55" viewBox="0 0 74 55" fill="none" xmlns="http://www.w3.org/2000/svg">
<path d="M59.5366 1.00023C66.6559 14.4478 65.0738 16.0299 59.5366 17.6119" stroke="#306064" stroke-width="2" stroke-linecap="round"/>
<path d="M59.5551 1.00023C52.4358 14.4478 53.9995 16.0299 59.5367 17.6119" stroke="#306064" stroke-width="2" stroke-linecap="round"/>
<path d="M19.9927 15.2388C27.112 28.6864 25.5299 30.2685 19.9927 31.8505" stroke="#306064" stroke-width="2" stroke-linecap="round"/>
<path d="M20.011 15.2388C12.8917 28.6864 14.4553 30.2685 19.9926 31.8505" stroke="#306064" stroke-width="2" stroke-linecap="round"/>
<path d="M46.8878 37.3879C54.0071 50.8355 52.425 52.4176 46.8878 53.9996" stroke="#306064" stroke-width="2" stroke-linecap="round"/>
<path d="M46.9061 37.3879C39.7868 50.8355 41.3505 52.4176 46.8877 53.9996" stroke="#306064" stroke-width="2" stroke-linecap="round"/>
<path d="M1.79099 23.9404C8.9103 23.1495 9.70133 30.2686 15.2386 25.5224" stroke="#306064" stroke-width="2" stroke-linecap="round"/>
<path d="M35.8054 23.2119C42.9247 22.3588 42.9247 31.0601 52.4172 23.9409" stroke="#306064" stroke-width="2" stroke-linecap="round"/>
<path d="M52.4173 23.9396C57.9545 19.9846 61.1186 30.268 66.6559 25.5218" stroke="#306064" stroke-width="2" stroke-linecap="round"/>
<path d="M66.6559 25.5222C68.2379 23.9401 69.82 23.9401 72.1931 23.9401" stroke="#306064" stroke-width="2" stroke-linecap="round"/>
<path d="M38.1787 23.212C31.0594 22.4211 30.2683 30.2692 24.7311 25.523" stroke="#306064" stroke-width="2" stroke-linecap="round"/>
<path d="M0.999987 33.5684C8.11929 32.7774 9.70136 39.7612 15.2386 35.015" stroke="#306064" stroke-width="2" stroke-linecap="round"/>
<path d="M35.0144 32.8387C42.1337 31.9856 42.1337 40.6869 51.6261 33.5677" stroke="#306064" stroke-width="2" stroke-linecap="round"/>
<path d="M51.6263 33.5682C57.1635 29.6131 60.3276 39.8965 65.8649 35.1503" stroke="#306064" stroke-width="2" stroke-linecap="round"/>
<path d="M65.8648 35.1507C67.4469 33.5686 69.029 33.5686 71.4021 33.5686" stroke="#306064" stroke-width="2" stroke-linecap="round"/>
<path d="M37.3877 32.8388C30.2684 32.0479 29.4773 39.896 23.9401 35.1498" stroke="#306064" stroke-width="2" stroke-linecap="round"/>
<path d="M15.238 35.015C18.4022 32.6421 22.3573 33.4331 24.7304 35.8061" stroke="#306064" stroke-width="2" stroke-linecap="round"/>
<path d="M0.999987 44.6429C8.11929 43.852 9.70136 50.8358 15.2386 46.0896" stroke="#306064" stroke-width="2" stroke-linecap="round"/>
<path d="M50.8353 45.2988C56.3725 41.3437 60.3277 50.9715 65.8649 46.2253" stroke="#306064" stroke-width="2" stroke-linecap="round"/>
<path d="M65.8648 46.225C67.4469 44.643 69.029 44.643 71.4021 44.643" stroke="#306064" stroke-width="2" stroke-linecap="round"/>
<path d="M37.3877 43.7158C30.2684 42.9249 29.4773 50.9706 23.9401 46.2244" stroke="#306064" stroke-width="2" stroke-linecap="round"/>
<path d="M15.238 46.0896C18.4022 43.7166 22.3573 44.5076 24.7304 46.8807" stroke="#306064" stroke-width="2" stroke-linecap="round"/>
<path d="M36.5962 43.7166C38.9694 43.7166 41.1065 45.1814 42.1335 46.8808" stroke="#306064" stroke-width="2" stroke-linecap="round"/>
</svg>
