<svg width="73" height="55" viewBox="0 0 73 55" fill="none" xmlns="http://www.w3.org/2000/svg">
<path d="M71.9978 26.7646C51.2575 26.7646 41.685 27.185 36.1011 20.8788" stroke="#306064" stroke-width="2" stroke-linecap="round"/>
<path d="M50.8272 5.72571C42.8913 3.26339 38.293 5.40658 37.3639 10.3035" stroke="#306064" stroke-width="2" stroke-linecap="round"/>
<path d="M50.8072 5.99485C47.4595 13.0775 43.8874 15.3965 40.4038 13.9665" stroke="#306064" stroke-width="2" stroke-linecap="round"/>
<path d="M18.382 1.73689C27.0273 -0.354282 31.8163 2.25472 32.5085 7.55931" stroke="#306064" stroke-width="2" stroke-linecap="round"/>
<path d="M18.3867 2.02473C21.5325 9.8344 25.2124 12.5612 29.0289 11.2696" stroke="#306064" stroke-width="2" stroke-linecap="round"/>
<path d="M1.00218 29.8566C21.4629 28.6775 28.1242 30.9694 36.1012 20.8795" stroke="#306064" stroke-width="2" stroke-linecap="round"/>
<path d="M36.1013 21.2984L35.7024 33.9108" stroke="#306064" stroke-width="2" stroke-linecap="round"/>
<path d="M35.7028 33.9129L32.9108 39.3783L26.8223 45.1288" stroke="#306064" stroke-width="2" stroke-linecap="round"/>
<path d="M33.5476 39.2932L37.6957 46.5243" stroke="#306064" stroke-width="2" stroke-linecap="round"/>
<path d="M36.1013 25.503L28.9219 33.9113" stroke="#306064" stroke-width="2" stroke-linecap="round"/>
<path d="M28.9226 33.9123L20.1478 35.594" stroke="#306064" stroke-width="2" stroke-linecap="round"/>
<path d="M20.148 35.5928L14.8643 41.7554" stroke="#306064" stroke-width="2" stroke-linecap="round"/>
<path d="M36.1013 24.6623L46.4715 33.9114" stroke="#306064" stroke-width="2" stroke-linecap="round"/>
<path d="M55.2454 34.9204C55.8022 34.9204 56.2535 34.4691 56.2535 33.9123C56.2535 33.3556 55.8022 32.9042 55.2454 32.9042V34.9204ZM46.4707 34.9204H55.2454V32.9042H46.4707V34.9204Z" fill="#306064"/>
<path d="M55.2462 33.9123L60.0324 38.1165" stroke="#306064" stroke-width="2" stroke-linecap="round"/>
<line x1="41.0984" y1="28.867" x2="41.0984" y2="36.4344" stroke="#306064" stroke-width="2"/>
<path d="M50.3433 45.8284C50.7588 46.199 51.3782 46.1474 51.7267 45.7133C52.0753 45.2791 52.021 44.6267 51.6055 44.2561L50.3433 45.8284ZM39.9732 36.5793L50.3433 45.8284L51.6055 44.2561L41.2353 35.007L39.9732 36.5793Z" fill="#306064"/>
<ellipse cx="58.0376" cy="30.9679" rx="1.19656" ry="1.26124" fill="#306064"/>
<ellipse cx="68.0093" cy="53.2513" rx="1.59541" ry="1.68165" fill="#306064"/>
<ellipse cx="40.8883" cy="44.0023" rx="1.59541" ry="1.68165" fill="#306064"/>
<ellipse cx="30.9156" cy="51.1485" rx="1.19656" ry="1.26124" fill="#306064"/>
<ellipse cx="57.639" cy="49.8884" rx="1.59541" ry="1.68165" fill="#306064"/>
<ellipse cx="19.7478" cy="43.5819" rx="1.19656" ry="1.26124" fill="#306064"/>
<ellipse cx="5.78923" cy="52.4106" rx="1.59541" ry="1.68165" fill="#306064"/>
<ellipse cx="9.77631" cy="44.843" rx="1.59541" ry="1.68165" fill="#306064"/>
<ellipse cx="4.59296" cy="36.0133" rx="1.19656" ry="1.26124" fill="#306064"/>
<ellipse cx="66.4148" cy="32.2292" rx="2.39312" ry="2.52248" fill="#306064"/>
<ellipse cx="52.454" cy="38.5356" rx="1.99426" ry="2.10207" fill="#306064"/>
<ellipse cx="64.4201" cy="44.4227" rx="1.99426" ry="2.10207" fill="#306064"/>
<ellipse cx="44.4769" cy="51.9893" rx="1.99426" ry="2.10207" fill="#306064"/>
<ellipse cx="16.5574" cy="51.9893" rx="1.99426" ry="2.10207" fill="#306064"/>
<ellipse cx="12.1698" cy="34.7533" rx="2.39312" ry="2.52248" fill="#306064"/>
<path d="M36.1013 21.2984C37.0457 12.6389 39.1464 10.0118 45.2749 8.68599" stroke="#306064" stroke-width="2" stroke-linecap="round"/>
<path d="M26.6124 5.0559C26.1682 4.73423 25.555 4.85515 25.2428 5.32599C24.9306 5.79683 25.0376 6.43929 25.4818 6.76096L26.6124 5.0559ZM25.4818 6.76096C28.3704 8.85282 30.3388 10.7078 31.8049 12.8799C33.2695 15.0499 34.2757 17.6002 35.1484 21.1488L37.0525 20.6076C36.1459 16.9211 35.0626 14.1134 33.4139 11.6708C31.7667 9.23033 29.598 7.21799 26.6124 5.0559L25.4818 6.76096Z" fill="#306064"/>
</svg>
