<svg width="57" height="56" viewBox="0 0 57 56" fill="none" xmlns="http://www.w3.org/2000/svg">
<g filter="url(#filter0_d_383_2485)">
<path d="M25.4193 11.8674C26.7767 9.54675 30.1649 9.54675 31.5223 11.8674C32.019 12.7166 32.8616 13.3183 33.8272 13.5061L33.9895 13.5376C36.5745 14.0402 37.5819 17.2019 35.7641 19.1073C35.0774 19.827 34.7489 20.8211 34.8674 21.8088C35.1797 24.4123 32.5428 26.3864 30.1436 25.3283L29.8982 25.22C28.9888 24.819 27.9527 24.819 27.0434 25.22L26.798 25.3283C24.3988 26.3864 21.7619 24.4123 22.0742 21.8088C22.1927 20.8211 21.8642 19.827 21.1775 19.1073C19.3597 17.2019 20.3671 14.0402 22.9521 13.5376L23.1144 13.5061C24.08 13.3183 24.9226 12.7166 25.4193 11.8674Z" fill="url(#paint0_angular_383_2485)"/>
</g>
<defs>
<filter id="filter0_d_383_2485" x="0" y="0" width="56.9417" height="56" filterUnits="userSpaceOnUse" color-interpolation-filters="sRGB">
<feFlood flood-opacity="0" result="BackgroundImageFix"/>
<feColorMatrix in="SourceAlpha" type="matrix" values="0 0 0 0 0 0 0 0 0 0 0 0 0 0 0 0 0 0 127 0" result="hardAlpha"/>
<feOffset dy="10"/>
<feGaussianBlur stdDeviation="10"/>
<feComposite in2="hardAlpha" operator="out"/>
<feColorMatrix type="matrix" values="0 0 0 0 0.225 0 0 0 0 0.225 0 0 0 0 0.225 0 0 0 0.55 0"/>
<feBlend mode="normal" in2="BackgroundImageFix" result="effect1_dropShadow_383_2485"/>
<feBlend mode="normal" in="SourceGraphic" in2="effect1_dropShadow_383_2485" result="shape"/>
</filter>
<radialGradient id="paint0_angular_383_2485" cx="0" cy="0" r="1" gradientUnits="userSpaceOnUse" gradientTransform="translate(28.5184 18.2999) rotate(90.2341) scale(11.6494 12.0897)">
<stop offset="0.107585" stop-color="#BFBFBF"/>
<stop offset="0.291667" stop-color="#DFDFDF"/>
<stop offset="0.494792" stop-color="#9E9E9E"/>
<stop offset="0.692708" stop-color="#D8D8D8"/>
<stop offset="0.885417" stop-color="#B3B3B3"/>
<stop offset="1" stop-color="#D7D7D7"/>
</radialGradient>
</defs>
</svg>
