<svg width="18" height="2" viewBox="0 0 18 2" fill="none" xmlns="http://www.w3.org/2000/svg">
<path d="M0.508287 0.50192C0.508287 0.54535 0.48349 0.739353 0.531766 0.753147C0.76748 0.820493 1.05901 0.716286 1.29719 0.713232C2.32524 0.700052 3.35417 0.713232 4.38234 0.713232C6.37801 0.713232 8.35325 0.586445 10.3484 0.586445C10.8669 0.586445 11.3867 0.575833 11.9051 0.588793C12.2468 0.597335 12.5821 0.66413 12.9241 0.67097C13.4307 0.681103 13.9307 0.818598 14.4361 0.837671C14.8321 0.852615 15.1967 0.888107 15.5866 0.957415C15.7294 0.982809 15.9189 1.00907 16.0609 1.00907C16.3009 1.00907 16.4924 1.10694 16.7183 1.13351C16.9648 1.16251 17.2836 1.19781 17.4978 1.30491" stroke="black" stroke-linecap="round"/>
</svg>
