<svg width="5" height="6" viewBox="0 0 5 6" fill="none" xmlns="http://www.w3.org/2000/svg">
<path d="M5.00011 2.78711L2.50005 5.57422L0 2.78711L2.50005 0L5.00011 2.78711Z" fill="#ED3C3C"/>
<path d="M2.49939 0.0631086V1.04079L0.933562 2.78706H0.0565802L2.49939 0.0631086Z" fill="#FFEDED"/>
<path d="M4.94299 2.78712H4.06601L2.49959 4.53339V5.51107L4.94299 2.78712Z" fill="#C41818"/>
<path d="M0.933301 2.78692L2.49964 1.04075L4.06598 2.78693L2.49964 4.53312L0.933301 2.78692Z" fill="#FF8181"/>
<path d="M1.56826 2.82712C1.6231 2.88827 1.71275 2.88827 1.7676 2.82712L2.58148 1.91979C2.63632 1.85865 2.63632 1.75871 2.58148 1.69756C2.52663 1.63642 2.43698 1.63642 2.38213 1.69756L1.56826 2.60489C1.51341 2.66604 1.51341 2.76597 1.56826 2.82712Z" fill="white"/>
</svg>
