<svg width="58" height="62" viewBox="0 0 58 62" fill="none" xmlns="http://www.w3.org/2000/svg">
<g filter="url(#filter0_ii_383_2495)">
<path d="M24.2258 1.21472C27.0281 -0.404693 30.4818 -0.404694 33.2842 1.21472L43.0655 6.86716L52.7993 12.1876C55.7388 13.7943 57.5507 16.893 57.5092 20.2427L57.376 31.0002L57.5092 41.7576C57.5507 45.1073 55.7388 48.206 52.7993 49.8127L43.0655 55.1331L33.2842 60.7856C30.4818 62.405 27.0281 62.405 24.2258 60.7856L14.4444 55.1331L4.71062 49.8127C1.77113 48.206 -0.0407173 45.1073 0.000742903 41.7576L0.133891 31.0002L0.000742903 20.2427C-0.0407173 16.893 1.77113 13.7943 4.71063 12.1876L14.4444 6.86716L24.2258 1.21472Z" fill="url(#paint0_linear_383_2495)"/>
</g>
<defs>
<filter id="filter0_ii_383_2495" x="0" y="-2.0116" width="57.51" height="68.0348" filterUnits="userSpaceOnUse" color-interpolation-filters="sRGB">
<feFlood flood-opacity="0" result="BackgroundImageFix"/>
<feBlend mode="normal" in="SourceGraphic" in2="BackgroundImageFix" result="shape"/>
<feColorMatrix in="SourceAlpha" type="matrix" values="0 0 0 0 0 0 0 0 0 0 0 0 0 0 0 0 0 0 127 0" result="hardAlpha"/>
<feOffset dy="4"/>
<feGaussianBlur stdDeviation="2"/>
<feComposite in2="hardAlpha" operator="arithmetic" k2="-1" k3="1"/>
<feColorMatrix type="matrix" values="0 0 0 0 0.520833 0 0 0 0 0.18129 0 0 0 0 0.0303819 0 0 0 1 0"/>
<feBlend mode="normal" in2="shape" result="effect1_innerShadow_383_2495"/>
<feColorMatrix in="SourceAlpha" type="matrix" values="0 0 0 0 0 0 0 0 0 0 0 0 0 0 0 0 0 0 127 0" result="hardAlpha"/>
<feOffset dy="-2"/>
<feGaussianBlur stdDeviation="1"/>
<feComposite in2="hardAlpha" operator="arithmetic" k2="-1" k3="1"/>
<feColorMatrix type="matrix" values="0 0 0 0 1 0 0 0 0 0.839 0 0 0 0 0.425 0 0 0 1 0"/>
<feBlend mode="normal" in2="effect1_innerShadow_383_2495" result="effect2_innerShadow_383_2495"/>
</filter>
<linearGradient id="paint0_linear_383_2495" x1="28.755" y1="-1.40262" x2="35.9035" y2="58.7108" gradientUnits="userSpaceOnUse">
<stop stop-color="#AF5A12"/>
<stop offset="0.1875" stop-color="#DD833D"/>
<stop offset="1" stop-color="#6E2D0F"/>
</linearGradient>
</defs>
</svg>
