<svg width="33" height="26" viewBox="0 0 33 26" fill="none" xmlns="http://www.w3.org/2000/svg">
<path d="M32.8233 14.6957C33.3885 25.4349 25.4755 26.0001 16.4319 26.0001C7.38843 26.0001 -0.52465 25.4349 0.0272464 14.6957C0.60579 7.91308 6.82321 0 16.4319 0C26.0407 0 32.2581 7.91308 32.8233 14.6957Z" fill="#EBEFF0"/>
<path d="M32.8233 14.6957C33.3885 25.4349 25.4755 26.0001 16.4319 26.0001C7.38843 26.0001 -0.52465 25.4349 0.0272464 14.6957C0.60579 7.91308 6.82321 0 16.4319 0C26.0407 0 32.2581 7.91308 32.8233 14.6957Z" fill="#EBEFF0"/>
<path d="M30.5624 14.6956C31.6928 23.7391 24.5282 23.7391 16.4372 23.7391C8.34633 23.7391 1.17095 23.7391 2.30137 14.6956C2.81898 9.09258 7.84065 2.26077 16.4373 2.26077C25.0339 2.26077 30.0567 9.09256 30.5624 14.6956Z" fill="#65DCB8"/>
<path d="M30.5624 14.6956C31.6928 23.7391 24.5282 23.7391 16.4372 23.7391C8.34633 23.7391 1.17095 23.7391 2.30137 14.6956C2.81898 9.09258 7.84065 2.26077 16.4373 2.26077C25.0339 2.26077 30.0567 9.09256 30.5624 14.6956Z" fill="#65DCB8"/>
<path d="M20.9538 10.174C20.9538 8.92531 21.966 7.91308 23.2147 7.91308C24.4633 7.91308 25.4755 8.92531 25.4755 10.174V16.9566C25.4755 18.2052 24.4633 19.2175 23.2147 19.2175C21.966 19.2175 20.9538 18.2052 20.9538 16.9566V10.174Z" fill="#464F5D"/>
<path d="M7.38864 10.174C7.38864 8.92531 8.40087 7.91308 9.64952 7.91308C10.8982 7.91308 11.9104 8.92531 11.9104 10.174V16.9566C11.9104 18.2052 10.8982 19.2175 9.64952 19.2175C8.40087 19.2175 7.38864 18.2052 7.38864 16.9566V10.174Z" fill="#464F5D"/>
</svg>
