<svg width="51" height="47" viewBox="0 0 51 47" fill="none" xmlns="http://www.w3.org/2000/svg">
<path d="M6.0725 21.5624H43.1495" stroke="black" stroke-width="2" stroke-linecap="round"/>
<path d="M6.07264 21.5625L1.01668 25.3544" stroke="black" stroke-width="2" stroke-linecap="round"/>
<path d="M1.01672 25.3543L5.65135 29.989" stroke="black" stroke-width="2"/>
<path d="M5.22998 29.5678L1.01668 34.6238" stroke="black" stroke-width="2" stroke-linecap="round"/>
<path d="M1.01672 34.6238L1.01672 40.1011" stroke="black" stroke-width="2" stroke-linecap="round"/>
<path d="M1.00039 40.4064L2.70193 45.9996" stroke="black" stroke-width="2" stroke-linecap="round"/>
<path d="M2.70198 45.9996H49.0483" stroke="black" stroke-width="2" stroke-linecap="round"/>
<path d="M49.0483 45.9996L45.6777 40.101" stroke="black" stroke-width="2" stroke-linecap="round"/>
<path d="M43.9923 21.5624L47.7843 28.725" stroke="black" stroke-width="2" stroke-linecap="round"/>
<path d="M44.6915 33.1504C44.4629 33.6532 44.6852 34.2461 45.188 34.4748C45.6908 34.7034 46.2838 34.4811 46.5124 33.9783L44.6915 33.1504ZM46.9249 28.2386L44.6915 33.1504L46.5124 33.9783L48.7457 29.0666L46.9249 28.2386Z" fill="black"/>
<path d="M45.6776 33.3597V40.101" stroke="black" stroke-width="2"/>
<path d="M46.077 33.2591L35.1442 39.2584" stroke="black" stroke-width="2"/>
<path d="M31.3524 32.0959L35.934 39.0538" stroke="black" stroke-width="2"/>
<path d="M31.5553 31.9687L35.987 26.6185" stroke="black" stroke-width="2"/>
<line x1="35.723" y1="21.5624" x2="35.723" y2="27.461" stroke="black" stroke-width="2"/>
<path d="M35.987 26.6184L46.9415 28.3037" stroke="black" stroke-width="2"/>
<path d="M29.2458 45.9995L35.5658 38.8369" stroke="black" stroke-width="2"/>
<path d="M15.3419 39.6798L35.1444 39.2585" stroke="black" stroke-width="2"/>
<path d="M27.9816 21.6783L24.611 31.6745L21.6617 45.5784" stroke="black" stroke-width="2"/>
<path d="M31.7736 32.0957L24.5065 31.6678" stroke="black" stroke-width="2"/>
<path d="M15.7415 32.6503L15.7632 39.6797L11.5498 45.9996" stroke="black" stroke-width="2"/>
<path d="M21.1514 21.9394L15.7631 32.9384" stroke="black" stroke-width="2"/>
<path d="M4.80865 29.5677L15.6084 32.5602" stroke="black" stroke-width="2"/>
<line x1="12.9291" y1="21.8498" x2="10.4011" y2="30.2764" stroke="black" stroke-width="2"/>
<path d="M1.01672 39.6798L7.758 36.7305L16.1846 39.6798" stroke="black" stroke-width="2"/>
<path d="M23.347 21.141C23.3769 12.654 24.2726 8.08761 28.403 6.39448" stroke="black" stroke-width="2"/>
<path d="M28.5444 6.06474C31.6293 9.20041 34.7288 7.05687 37.1982 1.68345" stroke="black" stroke-width="2" stroke-linecap="round"/>
<path d="M28.5493 5.98595C28.0603 1.61442 31.3392 0.0700406 37.0671 1.54098" stroke="black" stroke-width="2" stroke-linecap="round"/>
<path d="M23.5017 21.1409C23.479 14.5755 22.7979 11.043 19.6575 9.73322" stroke="black" stroke-width="2"/>
<path d="M19.6027 9.37872C17.6811 12.1523 15.087 10.8977 12.561 7.09994" stroke="black" stroke-width="2" stroke-linecap="round"/>
<path d="M19.5894 9.31905C19.4085 5.92174 16.7549 5.14662 12.6417 6.97491" stroke="black" stroke-width="2" stroke-linecap="round"/>
</svg>
