<svg width="53" height="52" viewBox="0 0 53 52" fill="none" xmlns="http://www.w3.org/2000/svg">
<path d="M29.8454 12.4201L38.2606 2.52692C41.9489 -0.568745 46.227 -0.403363 50.7225 0.817567C52.6604 6.11114 54.1254 10.1548 51.8281 13.2897C49.5308 16.4245 43.3871 23.5361 43.3871 23.5361L37.3917 18.3969L45.2683 7.34064L35.7031 16.9811L29.8454 12.4201Z" fill="#306064"/>
<path d="M16.7575 40.3538L35.4022 18.1579" stroke="#306064" stroke-width="2"/>
<path d="M14.4129 50.3951C14.0012 50.7659 13.3673 50.7353 12.9972 50.3266C12.6271 49.9179 12.6608 49.286 13.0725 48.9152L14.4129 50.3951ZM13.0725 48.9152C15.114 47.0763 16.3062 45.7283 16.7638 44.4995C17.169 43.4113 17.0422 42.2752 15.9095 40.6552L17.5562 39.5075C18.9357 41.4805 19.3452 43.3016 18.643 45.1872C17.9932 46.9321 16.4342 48.5744 14.4129 50.3951L13.0725 48.9152Z" fill="#306064"/>
<path d="M7.31468 44.5058C7.01137 44.9682 7.13985 45.5889 7.60166 45.8922C8.06346 46.1955 8.68371 46.0665 8.98702 45.6041L7.31468 44.5058ZM8.98702 45.6041C10.4926 43.3089 11.6443 41.9246 12.7929 41.2824C13.8115 40.713 14.9589 40.6626 16.7396 41.5259L17.6128 39.7236C15.4421 38.6712 13.5752 38.5519 11.818 39.5344C10.1909 40.4441 8.80569 42.2328 7.31468 44.5058L8.98702 45.6041Z" fill="#306064"/>
<path d="M8.41734 45.2329L13.7452 49.6565" stroke="#306064" stroke-width="2"/>
<path d="M23.2963 12.3186L14.8972 2.58606C11.2065 -0.467553 6.89685 -0.339339 2.36025 0.818575C0.368144 5.9759 -1.13812 9.91558 1.15151 12.9966C3.44113 16.0777 9.57391 23.0745 9.57391 23.0745L15.651 18.0997L7.80321 7.23495L17.3624 16.7295L23.2963 12.3186Z" fill="#306064"/>
<path d="M37.6745 40.5845L17.6552 17.8817" stroke="#306064" stroke-width="2"/>
<path d="M40.2112 50.7946C40.6385 51.1611 41.2774 51.1301 41.6382 50.7252C41.9989 50.3203 41.945 49.695 41.5177 49.3284L40.2112 50.7946ZM41.5177 49.3284C39.3178 47.4412 38.0409 46.0639 37.558 44.8185C37.1338 43.7245 37.2711 42.5699 38.5257 40.915L36.8833 39.7029C35.3851 41.6793 34.9162 43.5255 35.6671 45.4623C36.3593 47.2475 38.0387 48.9308 40.2112 50.7946L41.5177 49.3284Z" fill="#306064"/>
<path d="M47.8387 44.7258C48.145 45.1712 48.0095 45.7816 47.5359 46.0891C47.0624 46.3966 46.4301 46.2847 46.1238 45.8393L47.8387 44.7258ZM46.1238 45.8393C44.5133 43.4977 43.2657 42.0629 42.0011 41.3877C40.8605 40.7788 39.5851 40.7311 37.6443 41.5959L36.8303 39.8225C39.188 38.772 41.18 38.678 43.0345 39.6681C44.765 40.592 46.2401 42.4015 47.8387 44.7258L46.1238 45.8393Z" fill="#306064"/>
<path d="M46.6743 45.6065L40.863 50.0596" stroke="#306064" stroke-width="2"/>
</svg>
