<svg width="134" height="135" viewBox="0 0 134 135" fill="none" xmlns="http://www.w3.org/2000/svg">
<path d="M77.3305 0C73.4649 0.37877 71.7446 0.362064 69.3556 2.18345C67.5765 3.53984 67.0919 4.80988 66.3648 6.62475C69.3345 7.36901 72.5937 6.96656 75.0858 5.88723C76.7059 4.75831 77.5799 3.28758 77.3305 0Z" fill="#B1D455"/>
<path d="M57.4005 -5.16072e-05C61.2661 0.378718 62.9864 0.362013 65.3754 2.1834C67.1544 3.53979 67.6391 4.80983 68.3662 6.6247C65.3965 7.36896 62.1373 6.9665 59.6452 5.88718C58.0251 4.75825 57.1511 3.28752 57.4005 -5.16072e-05Z" fill="#B1D455"/>
<path d="M66.3648 6.00424C66.3648 5.45157 66.8128 5.00354 67.3655 5.00354C67.9182 5.00354 68.3662 5.45157 68.3662 6.00424V23.0163H66.3648V6.00424Z" fill="#B1D455"/>
<path d="M113.681 73.0501C113.681 106.762 95.1041 134.092 66.8098 134.092C38.5155 134.092 24.2987 105.969 22.1187 72.178C22.1187 38.4657 40.6491 14.4065 66.8098 12.0085C95.1041 12.0085 113.681 39.3377 113.681 73.0501Z" fill="#3B96D2"/>
<path d="M50.4595 96.1376C50.4595 90.6108 54.9398 86.1305 60.4666 86.1305H73.1533C78.68 86.1305 83.1603 90.6108 83.1603 96.1375V130.665C74.1106 134.754 61.3637 135.809 50.4595 130.38V96.1376Z" fill="#2980B9"/>
<path d="M98.4991 53.4295C99.5891 74.14 84.3287 75.2301 66.8882 75.2301C49.4478 75.2301 34.1874 74.14 35.2517 53.4295C36.3675 40.3492 48.3578 25.0888 66.8883 25.0888C85.4187 25.0888 97.409 40.3492 98.4991 53.4295Z" fill="#EBEFF0"/>
<path d="M98.4991 53.4295C99.5891 74.14 84.3287 75.2301 66.8882 75.2301C49.4478 75.2301 34.1874 74.14 35.2517 53.4295C36.3675 40.3492 48.3578 25.0888 66.8883 25.0888C85.4187 25.0888 97.409 40.3492 98.4991 53.4295Z" fill="#EBEFF0"/>
<path d="M94.1388 53.4294C96.3189 70.8699 82.5019 70.8699 66.8985 70.8699C51.2951 70.8699 37.4574 70.8699 39.6374 53.4294C40.6356 42.624 50.3199 29.4488 66.8985 29.4488C83.4771 29.4488 93.1636 42.6239 94.1388 53.4294Z" fill="#65DCB8"/>
<path d="M94.1388 53.4294C96.3189 70.8699 82.5019 70.8699 66.8985 70.8699C51.2951 70.8699 37.4574 70.8699 39.6374 53.4294C40.6356 42.624 50.3199 29.4488 66.8985 29.4488C83.4771 29.4488 93.1636 42.6239 94.1388 53.4294Z" fill="#65DCB8"/>
<path d="M75.6086 44.7092C75.6086 42.3012 77.5607 40.3491 79.9687 40.3491C82.3768 40.3491 84.3288 42.3012 84.3288 44.7092V57.7895C84.3288 60.1976 82.3768 62.1496 79.9687 62.1496C77.5607 62.1496 75.6086 60.1976 75.6086 57.7895V44.7092Z" fill="#464F5D"/>
<path d="M49.448 44.7092C49.448 42.3012 51.4001 40.3491 53.8082 40.3491C56.2162 40.3491 58.1683 42.3012 58.1683 44.7092V57.7895C58.1683 60.1976 56.2162 62.1496 53.8082 62.1496C51.4001 62.1496 49.448 60.1976 49.448 57.7895V44.7092Z" fill="#464F5D"/>
<path d="M132.335 82.4165C128.512 66.6183 118.56 55.4696 110.106 57.5152C101.651 59.5609 97.8971 74.0262 101.72 89.8244C105.542 105.623 113.527 110.535 121.982 108.489C130.436 106.443 136.157 98.2148 132.335 82.4165Z" fill="#285680"/>
<path d="M133.924 93.912C133.708 78.1305 128.429 73.0715 113.203 76.7557C97.9773 80.4399 101.232 90.53 102.75 95.6536C104.268 100.777 110.904 114.898 121.833 114.917C130.534 114.933 134.618 102.274 133.924 93.912Z" fill="#2980B9"/>
<path d="M1.66546 84.418C5.48817 68.6197 15.4404 57.471 23.8945 59.5166C32.3485 61.5623 36.1029 76.0276 32.2802 91.8258C28.4575 107.624 20.4725 112.536 12.0185 110.49C3.56444 108.445 -2.15725 100.216 1.66546 84.418Z" fill="#285680"/>
<path d="M0.0755212 95.9134C0.292208 80.1319 5.57116 75.0729 20.797 78.7571C36.0227 82.4413 32.7675 92.5314 31.2496 97.6551C29.7317 102.779 23.096 116.899 12.1665 116.919C3.46635 116.934 -0.61833 104.275 0.0755212 95.9134Z" fill="#2980B9"/>
</svg>
