<svg width="187" height="165" viewBox="0 0 187 165" fill="none" xmlns="http://www.w3.org/2000/svg">
<path d="M113.017 5.15544C109.188 4.52117 107.531 4.06003 104.754 5.20041C102.685 6.04966 101.889 7.15037 100.717 8.71435C103.392 10.2011 106.642 10.6556 109.327 10.2583C111.183 9.58749 112.408 8.39375 113.017 5.15544Z" fill="#B1D455"/>
<path d="M93.7772 8.48988e-05C97.411 1.36568 99.0762 1.79456 100.911 4.17088C102.278 5.94053 102.417 7.29199 102.65 9.23213C99.5903 9.18243 96.548 7.95083 94.4214 6.26423C93.1494 4.75529 92.686 3.10937 93.7772 8.48988e-05Z" fill="#B1D455"/>
<path d="M100.878 8.11537C101.021 7.58182 101.57 7.26519 102.103 7.40815C102.637 7.55112 102.953 8.09954 102.81 8.63309L98.4098 25.0564L96.4777 24.5386L100.878 8.11537Z" fill="#B1D455"/>
<path d="M147.517 99.2806C162.291 86.2548 168.616 69.2866 161.646 61.381C154.675 53.4754 137.048 57.6261 122.275 70.6519C107.502 83.6776 106.749 95.0126 113.72 102.918C120.69 110.824 132.744 112.306 147.517 99.2806Z" fill="#285680"/>
<path d="M136.094 107.481C152.887 98.33 155.327 89.8126 142.773 75.5745C130.219 61.3364 121.243 70.528 116.609 75.0506C111.975 79.5733 100.59 94.6662 106.746 106.392C111.646 115.726 127.523 112.951 136.094 107.481Z" fill="#2980B9"/>
<path d="M134.955 96.069C127.455 136.225 99.2473 164.645 65.5448 158.35C31.8424 152.056 21.1648 115.395 26.0857 74.66C33.5858 34.5039 61.0108 9.96865 92.7053 12.9324C126.408 19.2271 142.455 55.913 134.955 96.069Z" fill="#3B96D2"/>
<path d="M55.3542 105.001C56.3683 99.5712 61.5922 95.9916 67.022 97.0057L88.5783 101.032C93.992 102.043 97.5696 107.241 96.5812 112.658L88.429 157.344C75.8825 161.336 59.4022 159.409 46.93 150.104L55.3542 105.001Z" fill="#2980B9"/>
<path d="M126.076 65.3606C122.39 90.2193 104.004 87.844 83.2915 83.65C62.5786 79.4559 44.717 74.4915 50.9615 50.1509C55.4321 34.8846 73.342 19.6442 95.3495 24.1004C117.357 28.5566 127.927 49.5638 126.076 65.3606Z" fill="#EBEFF0"/>
<path d="M126.076 65.3606C122.39 90.2193 104.004 87.844 83.2915 83.65C62.5786 79.4559 44.717 74.4915 50.9615 50.1509C55.4321 34.8846 73.342 19.6442 95.3495 24.1004C117.357 28.5566 127.927 49.5638 126.076 65.3606Z" fill="#EBEFF0"/>
<path d="M120.898 64.3121C119.293 85.5492 102.883 82.2265 84.3524 78.4742C65.8213 74.7219 49.3871 71.3942 56.1702 51.2056C59.9542 38.6127 74.624 25.2943 94.3133 29.2811C114.003 33.2679 122.338 51.2446 120.898 64.3121Z" fill="#65DCB8"/>
<path d="M120.898 64.3121C119.293 85.5492 102.883 82.2265 84.3524 78.4742C65.8213 74.7219 49.3871 71.3942 56.1702 51.2056C59.9542 38.6127 74.624 25.2943 94.3133 29.2811C114.003 33.2679 122.338 51.2446 120.898 64.3121Z" fill="#65DCB8"/>
<path d="M63.3244 55.3292C70.1161 53.8405 75.0238 55.5604 78.3599 60.3445" stroke="#464F5D" stroke-width="4" stroke-linecap="round"/>
<path d="M96.9151 64.1019C103.145 61.0143 108.323 61.4959 112.717 65.3308" stroke="#464F5D" stroke-width="4" stroke-linecap="round"/>
<path d="M39.8801 106.493C32.4668 124.74 18.5413 136.316 8.7767 132.349C-0.987919 128.382 -2.89401 110.374 4.51933 92.1266C11.9327 73.8793 22.3825 69.4242 32.1471 73.3913C41.9117 77.3583 47.2935 88.2453 39.8801 106.493Z" fill="#285680"/>
<path d="M43.8459 93.0014C40.757 111.875 33.5237 116.991 15.9376 109.847C-1.64857 102.702 4.06138 91.1937 6.79899 85.3256C9.53661 79.4574 20.0203 63.7247 33.1216 65.661C43.5507 67.2024 46.1765 83.1047 43.8459 93.0014Z" fill="#2980B9"/>
<path d="M139.248 126.696H184.157L173.59 165H149.815L139.248 126.696Z" fill="#65341A"/>
<rect x="136.606" y="124.054" width="50.1915" height="5.28331" fill="#8D4D29"/>
<path d="M170.397 110.29C167.614 110.575 166.376 110.563 164.656 111.936C163.375 112.96 163.026 113.917 162.503 115.286C164.641 115.848 166.987 115.544 168.781 114.73C169.948 113.879 170.577 112.769 170.397 110.29Z" fill="#B1D455"/>
<path d="M154.221 113.774C157.004 114.06 158.243 114.047 159.963 115.421C161.244 116.444 161.593 117.402 162.116 118.771C159.978 119.332 157.632 119.029 155.838 118.215C154.671 117.363 154.042 116.254 154.221 113.774Z" fill="#B1D455"/>
<path d="M161.702 111.506C161.702 111.142 161.998 110.846 162.363 110.846C162.727 110.846 163.023 111.142 163.023 111.506V124.054H161.702V111.506Z" fill="#B1D455"/>
</svg>
