<svg width="163" height="214" viewBox="0 0 163 214" fill="none" xmlns="http://www.w3.org/2000/svg">
<path d="M153.525 117.026C153.525 170.578 124.015 213.991 79.0699 213.991C34.1244 213.991 11.541 169.318 8.07803 115.641C8.07803 62.0889 37.5137 23.871 79.0699 20.0617C124.015 20.0617 153.525 63.4742 153.525 117.026Z" fill="#3B96D2"/>
<path d="M53.0976 147.835C53.0976 142.295 57.5886 137.804 63.1284 137.804H95.0121C100.552 137.804 105.043 142.295 105.043 147.835V208.548C90.6674 215.043 70.419 216.719 53.0976 208.094V147.835Z" fill="#2980B9"/>
<path d="M130.698 84.6544C132.455 118.032 107.86 119.789 79.7527 119.789C51.645 119.789 27.0507 118.032 28.766 84.6543C30.5642 63.5736 49.8882 38.9793 79.7527 38.9793C109.617 38.9793 128.941 63.5736 130.698 84.6544Z" fill="#EBEFF0"/>
<path d="M130.698 84.6544C132.455 118.032 107.86 119.789 79.7527 119.789C51.645 119.789 27.0507 118.032 28.766 84.6543C30.5642 63.5736 49.8882 38.9793 79.7527 38.9793C109.617 38.9793 128.941 63.5736 130.698 84.6544Z" fill="#EBEFF0"/>
<path d="M123.671 84.6545C127.184 112.762 104.916 112.762 79.7691 112.762C54.6221 112.762 32.3206 112.762 35.834 84.6545C37.4428 67.24 53.0504 46.0064 79.7691 46.0064C106.488 46.0064 122.099 67.24 123.671 84.6545Z" fill="#65DCB8"/>
<path d="M123.671 84.6545C127.184 112.762 104.916 112.762 79.7691 112.762C54.6221 112.762 32.3206 112.762 35.834 84.6545C37.4428 67.24 53.0504 46.0064 79.7691 46.0064C106.488 46.0064 122.099 67.24 123.671 84.6545Z" fill="#65DCB8"/>
<path d="M56.7813 138.519C70.0209 161.154 70.5829 185.634 58.0366 193.196C45.4903 200.758 24.5867 188.539 11.347 165.904C-1.89257 143.269 2.21746 128.262 14.7638 120.7C27.3101 113.137 43.5416 115.883 56.7813 138.519Z" fill="#285680"/>
<path d="M45.7046 123.446C63.2901 141.833 62.6217 153.836 40.0257 167.456C17.4297 181.076 9.95873 165.665 6.00152 157.998C2.04431 150.33 -5.89331 126.324 7.31411 113.487C17.8276 103.268 37.0876 113.024 45.7046 123.446Z" fill="#2980B9"/>
<path d="M149.078 164.964C133.884 186.311 112.191 196.986 100.625 188.808C89.059 180.63 92.0002 156.696 107.194 135.349C122.389 114.002 137.391 111.477 148.957 119.655C160.523 127.833 164.273 143.617 149.078 164.964Z" fill="#285680"/>
<path d="M158.332 148.71C148.602 172.214 137.604 176.596 116.774 161.868C95.9432 147.139 106.878 133.997 112.226 127.242C117.575 120.488 136.023 103.355 152.563 109.938C165.729 115.179 164.364 136.607 158.332 148.71Z" fill="#2980B9"/>
<path d="M42.7377 90.246C53.079 88.1045 58.3515 89.2047 66.7155 95.7216" stroke="black" stroke-width="3" stroke-linecap="round"/>
<path d="M116.647 90.246C106.306 88.1045 101.033 89.2047 92.669 95.7216" stroke="black" stroke-width="3" stroke-linecap="round"/>
<path d="M94.2816 0.000122446C88.6456 0.596744 86.1374 0.570429 82.6543 3.4394C80.0604 5.57592 79.3538 7.57643 78.2937 10.4351C82.6235 11.6075 87.3754 10.9735 91.0088 9.27342C93.3709 7.49519 94.6453 5.17856 94.2816 0.000122446Z" fill="#B1D455"/>
<path d="M64.3119 4.11571e-05C69.9479 0.596662 72.4561 0.570348 75.9392 3.43932C78.5331 5.57583 79.2398 7.57635 80.2998 10.4351C75.97 11.6074 71.2181 10.9734 67.5847 9.27334C65.2226 7.49511 63.9482 5.17848 64.3119 4.11571e-05Z" fill="#B1D455"/>
<path d="M78.2937 9.02785C78.2937 8.47386 78.7428 8.02477 79.2968 8.02477C79.8507 8.02477 80.2998 8.47386 80.2998 9.02785V26.0802C80.2998 26.6342 79.8507 27.0833 79.2968 27.0833C78.7428 27.0833 78.2937 26.6342 78.2937 26.0802V9.02785Z" fill="#B1D455"/>
</svg>
