<svg width="44" height="40" viewBox="0 0 44 40" fill="none" xmlns="http://www.w3.org/2000/svg">
<path d="M43.9103 0.000123544C35.6696 0.872484 32.0021 0.834008 26.9092 5.02892C23.1165 8.15287 22.0833 11.078 20.5332 15.2579C26.8642 16.972 33.8123 16.0451 39.1249 13.5593C42.5787 10.9592 44.442 7.57188 43.9103 0.000123544Z" fill="#B1D455"/>
<path d="M0.0896538 4.68551e-06C8.33044 0.872365 11.9979 0.83389 17.0908 5.0288C20.8835 8.15275 21.9167 11.0778 23.4668 15.2577C17.1358 16.9719 10.1877 16.045 4.87511 13.5591C1.4213 10.9591 -0.442022 7.57176 0.0896538 4.68551e-06Z" fill="#B1D455"/>
<path d="M20.5335 13.2004C20.5335 12.3904 21.1902 11.7337 22.0002 11.7337C22.8102 11.7337 23.4669 12.3904 23.4669 13.2004V38.1338C23.4669 38.9439 22.8102 39.6005 22.0002 39.6005C21.1902 39.6005 20.5335 38.9439 20.5335 38.1338V13.2004Z" fill="#B1D455"/>
</svg>
