<svg width="97" height="77" viewBox="0 0 97 77" fill="none" xmlns="http://www.w3.org/2000/svg">
<path d="M96.9157 43.3913C98.5846 75.1003 75.2201 76.7692 48.5177 76.7692C21.8154 76.7692 -1.54911 75.1003 0.0804489 43.3912C1.78868 23.3645 20.1465 0 48.5178 0C76.889 0 95.2468 23.3645 96.9157 43.3913Z" fill="#EBEFF0"/>
<path d="M96.9157 43.3913C98.5846 75.1003 75.2201 76.7692 48.5177 76.7692C21.8154 76.7692 -1.54911 75.1003 0.0804489 43.3912C1.78868 23.3645 20.1465 0 48.5178 0C76.889 0 95.2468 23.3645 96.9157 43.3913Z" fill="#EBEFF0"/>
<path d="M90.2402 43.3912C93.578 70.0935 72.4234 70.0935 48.5337 70.0935C24.6441 70.0935 3.4577 70.0935 6.79545 43.3912C8.32375 26.8474 23.151 6.6755 48.5337 6.6755C73.9165 6.6755 88.7471 26.8474 90.2402 43.3912Z" fill="#65DCB8"/>
<path d="M90.2402 43.3912C93.578 70.0935 72.4234 70.0935 48.5337 70.0935C24.6441 70.0935 3.4577 70.0935 6.79545 43.3912C8.32375 26.8474 23.151 6.6755 48.5337 6.6755C73.9165 6.6755 88.7471 26.8474 90.2402 43.3912Z" fill="#65DCB8"/>
<path d="M61.8691 30.0398C61.8691 26.353 64.8579 23.3642 68.5447 23.3642C72.2315 23.3642 75.2203 26.353 75.2203 30.0398V50.0666C75.2203 53.7534 72.2315 56.7421 68.5447 56.7421C64.8579 56.7421 61.8691 53.7534 61.8691 50.0666V30.0398Z" fill="#464F5D"/>
<path d="M21.8156 30.0398C21.8156 26.353 24.8044 23.3642 28.4912 23.3642C32.1781 23.3642 35.1668 26.353 35.1668 30.0398V50.0666C35.1668 53.7534 32.1781 56.7421 28.4912 56.7421C24.8044 56.7421 21.8156 53.7534 21.8156 50.0666V30.0398Z" fill="#464F5D"/>
</svg>
