<svg width="7" height="7" viewBox="0 0 7 7" fill="none" xmlns="http://www.w3.org/2000/svg">
<path d="M6.27893 3.49993L3.13946 6.99987L0 3.49993L3.13946 0L6.27893 3.49993Z" fill="#FF7B35"/>
<path d="M3.13912 0.0789455V1.30667L1.17282 3.49957H0.0715444L3.13912 0.0789455Z" fill="#FFE2D2"/>
<path d="M6.20714 3.49975H5.10587L3.13882 5.69265V6.92038L6.20714 3.49975Z" fill="#DD4D00"/>
<path d="M1.17209 3.49981L3.13904 1.30704L5.10599 3.49982L3.13904 5.69261L1.17209 3.49981Z" fill="#FFA575"/>
<path d="M1.96954 3.54984C2.03842 3.62662 2.15099 3.62662 2.21986 3.54984L3.2419 2.41045C3.31077 2.33367 3.31077 2.20817 3.2419 2.13139C3.17302 2.0546 3.06045 2.0546 2.99157 2.13139L1.96954 3.27077C1.90066 3.34755 1.90066 3.47305 1.96954 3.54984Z" fill="white"/>
</svg>
