<svg width="87" height="87" viewBox="0 0 87 87" fill="none" xmlns="http://www.w3.org/2000/svg">
<path d="M50.1706 0C47.6627 0.245739 46.5466 0.2349 44.9966 1.41658C43.8424 2.29658 43.528 3.12056 43.0563 4.29802C44.983 4.78088 47.0975 4.51978 48.7143 3.81953C49.7654 3.0871 50.3324 2.13292 50.1706 0Z" fill="#B1D455"/>
<path d="M37.2404 -3.34818e-05C39.7483 0.245705 40.8645 0.234867 42.4144 1.41655C43.5686 2.29655 43.8831 3.12053 44.3548 4.29799C42.4281 4.78085 40.3136 4.51974 38.6968 3.8195C37.6457 3.08707 37.0786 2.13289 37.2404 -3.34818e-05Z" fill="#B1D455"/>
<path d="M43.0564 3.89543C43.0564 3.53687 43.3471 3.24619 43.7056 3.24619C44.0642 3.24619 44.3549 3.53687 44.3549 3.89543V14.9325H43.0564V3.89543Z" fill="#B1D455"/>
<path d="M73.7542 47.3936C73.7542 69.2655 61.7018 86.9963 43.345 86.9963C24.9882 86.9963 15.7645 68.7507 14.3502 46.8278C14.3502 24.9558 26.3724 9.34669 43.345 7.79091C61.7018 7.79091 73.7542 25.5216 73.7542 47.3936Z" fill="#3B96D2"/>
<path d="M32.7373 65.9135C32.7373 60.3721 37.2294 55.88 42.7708 55.88H43.9195C49.4608 55.88 53.953 60.3721 53.953 65.9135V84.7735C48.0817 87.4261 39.8117 88.1105 32.7373 84.588V65.9135Z" fill="#2980B9"/>
<path d="M63.9043 34.6642C64.6115 48.1008 54.7109 48.808 43.3958 48.808C32.0808 48.808 22.1801 48.1008 22.8706 34.6642C23.5945 26.1779 31.3736 16.2773 43.3958 16.2773C55.418 16.2773 63.1971 26.1779 63.9043 34.6642Z" fill="#EBEFF0"/>
<path d="M63.9043 34.6642C64.6115 48.1008 54.7109 48.808 43.3958 48.808C32.0808 48.808 22.1801 48.1008 22.8706 34.6642C23.5945 26.1779 31.3736 16.2773 43.3958 16.2773C55.418 16.2773 63.1971 26.1779 63.9043 34.6642Z" fill="#EBEFF0"/>
<path d="M61.0753 34.6642C62.4896 45.9793 53.5254 45.9793 43.4022 45.9793C33.279 45.9793 24.3014 45.9793 25.7157 34.6642C26.3633 27.6538 32.6463 19.106 43.4022 19.106C54.1581 19.106 60.4426 27.6538 61.0753 34.6642Z" fill="#65DCB8"/>
<path d="M61.0753 34.6642C62.4896 45.9793 53.5254 45.9793 43.4022 45.9793C33.279 45.9793 24.3014 45.9793 25.7157 34.6642C26.3633 27.6538 32.6463 19.106 43.4022 19.106C54.1581 19.106 60.4426 27.6538 61.0753 34.6642Z" fill="#65DCB8"/>
<path d="M49.0535 29.0068C49.0535 27.4445 50.3199 26.178 51.8822 26.178C53.4445 26.178 54.711 27.4445 54.711 29.0068V37.493C54.711 39.0553 53.4445 40.3218 51.8822 40.3218C50.3199 40.3218 49.0535 39.0553 49.0535 37.493V29.0068Z" fill="#464F5D"/>
<path d="M32.0813 29.0068C32.0813 27.4445 33.3477 26.178 34.91 26.178C36.4723 26.178 37.7388 27.4445 37.7388 29.0068V37.493C37.7388 39.0553 36.4723 40.3218 34.91 40.3218C33.3477 40.3218 32.0813 39.0553 32.0813 37.493V29.0068Z" fill="#464F5D"/>
<path d="M85.8561 53.4704C83.376 43.2208 76.9191 35.9877 71.4343 37.3149C65.9495 38.642 63.5137 48.0269 65.9938 58.2765C68.4739 68.5261 73.6544 71.7129 79.1392 70.3858C84.6241 69.0586 88.3362 63.72 85.8561 53.4704Z" fill="#285680"/>
<path d="M86.8874 60.9287C86.7468 50.6899 83.322 47.4077 73.4437 49.798C63.5655 52.1882 65.6774 58.7345 66.6622 62.0586C67.647 65.3828 71.9521 74.544 79.043 74.5565C84.6875 74.5664 87.3376 66.3538 86.8874 60.9287Z" fill="#2980B9"/>
<path d="M1.08071 54.7687C3.56082 44.519 10.0177 37.286 15.5025 38.6131C20.9873 39.9403 23.4231 49.3251 20.943 59.5748C18.4629 69.8244 13.2824 73.0112 7.79757 71.684C2.31274 70.3569 -1.39939 65.0183 1.08071 54.7687Z" fill="#285680"/>
<path d="M0.0488899 62.227C0.189473 51.9882 3.61436 48.706 13.4926 51.0963C23.3708 53.4865 21.2589 60.0327 20.2741 63.3569C19.2893 66.6811 14.9842 75.8423 7.89331 75.8548C2.2488 75.8647 -0.401268 67.6521 0.0488899 62.227Z" fill="#2980B9"/>
</svg>
