<svg width="61" height="46" viewBox="0 0 61 46" fill="none" xmlns="http://www.w3.org/2000/svg">
<path d="M59.9981 22.2349C42.7633 22.2349 34.8087 22.5814 30.1686 17.384" stroke="black" stroke-width="2" stroke-linecap="round"/>
<path d="M42.4064 4.89509C35.8118 2.86572 31.9907 4.63208 31.2186 8.66796" stroke="black" stroke-width="2" stroke-linecap="round"/>
<path d="M42.39 5.1163C39.6081 10.9536 36.6397 12.8648 33.7449 11.6863" stroke="black" stroke-width="2" stroke-linecap="round"/>
<path d="M15.4448 1.60769C22.6289 -0.115792 26.6084 2.03447 27.1837 6.40635" stroke="black" stroke-width="2" stroke-linecap="round"/>
<path d="M15.4486 1.84564C18.0627 8.28213 21.1207 10.5295 24.2921 9.46501" stroke="black" stroke-width="2" stroke-linecap="round"/>
<path d="M1.00189 24.7827C18.0043 23.8109 23.5397 25.6998 30.1685 17.384" stroke="black" stroke-width="2" stroke-linecap="round"/>
<path d="M30.1684 17.7306L29.837 28.1254" stroke="black" stroke-width="2" stroke-linecap="round"/>
<path d="M29.837 28.1254L27.5169 32.6298L22.4574 37.3692" stroke="black" stroke-width="2" stroke-linecap="round"/>
<path d="M28.0474 32.5603L31.4944 38.52" stroke="black" stroke-width="2" stroke-linecap="round"/>
<path d="M30.1684 21.1957L24.2025 28.1255" stroke="black" stroke-width="2" stroke-linecap="round"/>
<path d="M24.2026 28.1253L16.9109 29.5113" stroke="black" stroke-width="2" stroke-linecap="round"/>
<path d="M16.9109 29.5111L12.5202 34.5902" stroke="black" stroke-width="2" stroke-linecap="round"/>
<path d="M30.1684 20.5025L38.7858 28.1254" stroke="black" stroke-width="2" stroke-linecap="round"/>
<path d="M46.0776 29.1321C46.6337 29.1321 47.0844 28.6814 47.0844 28.1253C47.0844 27.5693 46.6337 27.1185 46.0776 27.1185V29.1321ZM38.786 29.1321H46.0776V27.1185H38.786V29.1321Z" fill="black"/>
<path d="M46.0777 28.1253L50.0549 31.5902" stroke="black" stroke-width="2" stroke-linecap="round"/>
<line x1="34.4896" y1="23.9673" x2="34.4896" y2="30.2042" stroke="black" stroke-width="2"/>
<path d="M41.895 38.0805C42.3115 38.4489 42.9327 38.3972 43.2825 37.965C43.6323 37.5328 43.5783 36.8837 43.1618 36.5153L41.895 38.0805ZM33.2776 30.4577L41.895 38.0805L43.1618 36.5153L34.5444 28.8925L33.2776 30.4577Z" fill="black"/>
<ellipse cx="48.3976" cy="25.7" rx="0.994317" ry="1.03948" fill="black"/>
<ellipse cx="56.6836" cy="44.0639" rx="1.32576" ry="1.38597" fill="black"/>
<ellipse cx="34.1459" cy="36.4412" rx="1.32576" ry="1.38597" fill="black"/>
<ellipse cx="25.8598" cy="42.3316" rx="0.994317" ry="1.03948" fill="black"/>
<ellipse cx="48.0663" cy="41.292" rx="1.32576" ry="1.38597" fill="black"/>
<ellipse cx="16.5796" cy="36.0947" rx="0.994317" ry="1.03948" fill="black"/>
<ellipse cx="4.9791" cy="43.371" rx="1.32576" ry="1.38597" fill="black"/>
<ellipse cx="8.29348" cy="37.1341" rx="1.32576" ry="1.38597" fill="black"/>
<ellipse cx="3.98473" cy="29.8577" rx="0.994317" ry="1.03948" fill="black"/>
<ellipse cx="55.358" cy="26.7395" rx="1.98863" ry="2.07895" fill="black"/>
<ellipse cx="43.7575" cy="31.9368" rx="1.6572" ry="1.73246" fill="black"/>
<ellipse cx="53.7007" cy="36.7877" rx="1.6572" ry="1.73246" fill="black"/>
<ellipse cx="37.1288" cy="43.0246" rx="1.6572" ry="1.73246" fill="black"/>
<ellipse cx="13.9281" cy="43.0246" rx="1.6572" ry="1.73246" fill="black"/>
<ellipse cx="10.2822" cy="28.8182" rx="1.98863" ry="2.07895" fill="black"/>
<path d="M30.1684 17.7306C30.9532 10.5938 32.6989 8.42853 37.7915 7.33586" stroke="black" stroke-width="2" stroke-linecap="round"/>
<path d="M22.3799 4.19824C21.9339 3.87796 21.3192 3.99803 21.0069 4.46641C20.6946 4.9348 20.8029 5.57414 21.2488 5.89442L22.3799 4.19824ZM21.2488 5.89442C23.6408 7.61239 25.2589 9.12753 26.4613 10.8944C27.6623 12.6592 28.4917 14.7387 29.2139 17.6515L31.1231 17.1165C30.3668 14.0663 29.4598 11.7299 28.0737 9.69315C26.689 7.65842 24.8693 5.98624 22.3799 4.19824L21.2488 5.89442Z" fill="black"/>
</svg>
