<svg width="58" height="54" viewBox="0 0 58 54" fill="none" xmlns="http://www.w3.org/2000/svg">
<path d="M6.86496 24.7606H49.7013" stroke="#306064" stroke-width="2" stroke-linecap="round"/>
<path d="M6.8642 24.7606L1.02288 29.1416" stroke="#306064" stroke-width="2" stroke-linecap="round"/>
<path d="M1.02268 29.1422L6.37722 34.4968" stroke="#306064" stroke-width="2"/>
<path d="M5.89161 34.0092L1.02385 39.8505" stroke="#306064" stroke-width="2" stroke-linecap="round"/>
<path d="M1.02268 39.8507L1.02268 46.1788" stroke="#306064" stroke-width="2" stroke-linecap="round"/>
<path d="M1.00484 46.5319L2.97068 52.9939" stroke="#306064" stroke-width="2" stroke-linecap="round"/>
<path d="M2.97019 52.9952H56.5156" stroke="#306064" stroke-width="2" stroke-linecap="round"/>
<path d="M56.5162 52.9952L52.622 46.1804" stroke="#306064" stroke-width="2" stroke-linecap="round"/>
<path d="M50.6749 24.7606L55.0559 33.0358" stroke="#306064" stroke-width="2" stroke-linecap="round"/>
<path d="M51.6199 38.2106C51.3903 38.7156 51.6136 39.3112 52.1186 39.5408C52.6236 39.7704 53.2192 39.5472 53.4488 39.0422L51.6199 38.2106ZM54.2002 32.5359L51.6199 38.2106L53.4488 39.0422L56.0291 33.3675L54.2002 32.5359Z" fill="#306064"/>
<path d="M52.6215 38.3908V46.1792" stroke="#306064" stroke-width="2"/>
<path d="M53.0832 38.2738L40.4522 45.205" stroke="#306064" stroke-width="2"/>
<path d="M36.0717 36.9311L41.365 44.9698" stroke="#306064" stroke-width="2"/>
<path d="M36.3046 36.7839L41.4248 30.6026" stroke="#306064" stroke-width="2"/>
<line x1="40.97" y1="24.7606" x2="40.97" y2="31.5755" stroke="#306064" stroke-width="2"/>
<path d="M41.4264 30.6019L54.0826 32.5491" stroke="#306064" stroke-width="2"/>
<path d="M33.6368 52.9932L40.9385 44.718" stroke="#306064" stroke-width="2"/>
<path d="M17.5744 45.692L40.4529 45.2053" stroke="#306064" stroke-width="2"/>
<path d="M32.1771 24.8946L28.2829 36.4435L24.8754 52.5071" stroke="#306064" stroke-width="2"/>
<path d="M36.5574 36.931L28.1615 36.4367" stroke="#306064" stroke-width="2"/>
<path d="M18.0352 37.5711L18.0602 45.6924L13.1924 52.994" stroke="#306064" stroke-width="2"/>
<path d="M24.2863 25.1949L18.061 37.9024" stroke="#306064" stroke-width="2"/>
<path d="M5.40348 34.0097L17.8807 37.4671" stroke="#306064" stroke-width="2"/>
<line x1="14.6418" y1="25.0493" x2="11.7212" y2="34.7848" stroke="#306064" stroke-width="2"/>
<path d="M1.02268 45.692L8.8111 42.2845L18.5466 45.692" stroke="#306064" stroke-width="2"/>
<path d="M26.8226 24.2734C26.8571 14.4681 27.892 9.19238 32.6639 7.23625" stroke="#306064" stroke-width="2"/>
<path d="M32.8275 6.85552C36.3917 10.4783 39.9725 8.00176 42.8255 1.79366" stroke="#306064" stroke-width="2" stroke-linecap="round"/>
<path d="M32.8324 6.76495C32.2674 1.71438 36.0556 -0.0698913 42.6732 1.62954" stroke="#306064" stroke-width="2" stroke-linecap="round"/>
<path d="M27.0002 24.2748C26.974 16.6895 26.1872 12.6083 22.559 11.0951" stroke="#306064" stroke-width="2"/>
<path d="M22.4959 10.6846C20.2757 13.889 17.2788 12.4396 14.3603 8.05185" stroke="#306064" stroke-width="2" stroke-linecap="round"/>
<path d="M22.48 10.6163C22.271 6.69126 19.2052 5.79574 14.4531 7.90803" stroke="#306064" stroke-width="2" stroke-linecap="round"/>
</svg>
