<svg width="10" height="16" viewBox="0 0 10 16" fill="none" xmlns="http://www.w3.org/2000/svg">
<path d="M0.825847 7.25196L0.825635 7.25216C0.621278 7.44499 0.5 7.71323 0.5 8.00003C0.5 8.28604 0.620528 8.55479 0.825851 8.74807L0.825847 7.25196ZM0.825847 7.25196L7.67725 0.794459L7.67736 0.794358C8.09473 0.401215 8.75938 0.401889 9.17597 0.796337L9.17609 0.796448C9.60873 1.20635 9.60734 1.88226 9.174 2.29071L9.17399 2.29072L3.11646 8.00002L9.17421 13.7093L9.17428 13.7094C9.60753 14.1178 9.60892 14.7934 9.17637 15.2034L9.17621 15.2035C8.96468 15.4038 8.69182 15.5 8.42575 15.5C8.16045 15.5 7.8886 15.4045 7.67738 15.2055L7.67728 15.2054L0.826269 8.74846L0.825847 7.25196Z" fill="#306064" stroke="black"/>
</svg>
