<svg width="48" height="52" viewBox="0 0 48 52" fill="none" xmlns="http://www.w3.org/2000/svg">
<g filter="url(#filter0_ii_383_2496)">
<path d="M19.4957 1.20805C22.2826 -0.402468 25.7173 -0.40247 28.5043 1.20804L35.9494 5.51042L43.3152 9.53652C46.2386 11.1344 48.0404 14.2161 47.9992 17.5473L47.8988 25.6616L47.9992 33.7759C48.0404 37.1072 46.2386 40.1889 43.3152 41.7868L35.9494 45.8129L28.5043 50.1153C25.7173 51.7258 22.2826 51.7258 19.4957 50.1153L12.0506 45.8129L4.68471 41.7868C1.76138 40.1889 -0.0405104 37.1072 0.000721888 33.7759L0.101155 25.6616L0.000721888 17.5474C-0.0405104 14.2161 1.76138 11.1344 4.68472 9.53652L12.0506 5.51042L19.4957 1.20805Z" fill="url(#paint0_linear_383_2496)"/>
</g>
<defs>
<filter id="filter0_ii_383_2496" x="0" y="-4.00108" width="48" height="59.3251" filterUnits="userSpaceOnUse" color-interpolation-filters="sRGB">
<feFlood flood-opacity="0" result="BackgroundImageFix"/>
<feBlend mode="normal" in="SourceGraphic" in2="BackgroundImageFix" result="shape"/>
<feColorMatrix in="SourceAlpha" type="matrix" values="0 0 0 0 0 0 0 0 0 0 0 0 0 0 0 0 0 0 127 0" result="hardAlpha"/>
<feOffset dy="4"/>
<feGaussianBlur stdDeviation="2"/>
<feComposite in2="hardAlpha" operator="arithmetic" k2="-1" k3="1"/>
<feColorMatrix type="matrix" values="0 0 0 0 0.483333 0 0 0 0 0.232573 0 0 0 0 0.114792 0 0 0 1 0"/>
<feBlend mode="normal" in2="shape" result="effect1_innerShadow_383_2496"/>
<feColorMatrix in="SourceAlpha" type="matrix" values="0 0 0 0 0 0 0 0 0 0 0 0 0 0 0 0 0 0 127 0" result="hardAlpha"/>
<feOffset dy="-4"/>
<feGaussianBlur stdDeviation="2"/>
<feComposite in2="hardAlpha" operator="arithmetic" k2="-1" k3="1"/>
<feColorMatrix type="matrix" values="0 0 0 0 0.725 0 0 0 0 0.440679 0 0 0 0 0.178229 0 0 0 1 0"/>
<feBlend mode="normal" in2="effect1_innerShadow_383_2496" result="effect2_innerShadow_383_2496"/>
</filter>
<linearGradient id="paint0_linear_383_2496" x1="12.291" y1="5.29323" x2="23.4223" y2="52.8534" gradientUnits="userSpaceOnUse">
<stop stop-color="#CC7022"/>
<stop offset="1" stop-color="#61240C"/>
</linearGradient>
</defs>
</svg>
