<svg width="86" height="91" viewBox="0 0 86 91" fill="none" xmlns="http://www.w3.org/2000/svg">
<g filter="url(#filter0_d_383_2494)">
<path d="M38.2417 7.22676C41.0353 5.61243 44.4782 5.61243 47.2717 7.22676L59.0411 14.028L70.7913 20.4506C73.7216 22.0523 75.5278 25.1413 75.4864 28.4804L75.3254 41.4896L75.4864 54.4988C75.5278 57.838 73.7216 60.927 70.7913 62.5286L59.0411 68.9512L47.2717 75.7525C44.4782 77.3668 41.0353 77.3668 38.2417 75.7525L26.4724 68.9512L14.7221 62.5286C11.7919 60.927 9.9857 57.838 10.027 54.4988L10.188 41.4896L10.027 28.4804C9.9857 25.1413 11.7919 22.0523 14.7221 20.4506L26.4724 14.028L38.2417 7.22676Z" fill="url(#paint0_linear_383_2494)"/>
<path d="M58.5394 14.8961L58.5497 14.9021L58.5602 14.9078L70.3105 21.3304C72.9151 22.7541 74.5206 25.4999 74.4839 28.468L74.3229 41.4772L74.3227 41.4896L74.3229 41.502L74.4839 54.5112C74.5206 57.4794 72.9151 60.2251 70.3105 61.6488L58.5602 68.0714L58.5497 68.0771L58.5394 68.0831L46.7701 74.8844C44.2869 76.3193 41.2266 76.3193 38.7434 74.8844L26.9741 68.0831L26.9637 68.0771L26.9533 68.0714L15.203 61.6488C12.5983 60.2251 10.9929 57.4794 11.0296 54.5112L11.1906 41.502L11.1908 41.4896L11.1906 41.4772L11.0296 28.468C10.9929 25.4999 12.5983 22.7541 15.203 21.3304L26.9533 14.9078L26.9637 14.9021L26.9741 14.8961L38.7434 8.09487C41.2266 6.65991 44.2869 6.65991 46.7701 8.09487L58.5394 14.8961Z" stroke="url(#paint1_linear_383_2494)" stroke-width="2"/>
</g>
<defs>
<filter id="filter0_d_383_2494" x="0" y="0" width="85.5136" height="91" filterUnits="userSpaceOnUse" color-interpolation-filters="sRGB">
<feFlood flood-opacity="0" result="BackgroundImageFix"/>
<feColorMatrix in="SourceAlpha" type="matrix" values="0 0 0 0 0 0 0 0 0 0 0 0 0 0 0 0 0 0 127 0" result="hardAlpha"/>
<feOffset dy="4"/>
<feGaussianBlur stdDeviation="5"/>
<feComposite in2="hardAlpha" operator="out"/>
<feColorMatrix type="matrix" values="0 0 0 0 0.641667 0 0 0 0 0.308 0 0 0 0 0 0 0 0 1 0"/>
<feBlend mode="normal" in2="BackgroundImageFix" result="effect1_dropShadow_383_2494"/>
<feBlend mode="normal" in="SourceGraphic" in2="effect1_dropShadow_383_2494" result="shape"/>
</filter>
<linearGradient id="paint0_linear_383_2494" x1="24.9169" y1="15.4354" x2="59.112" y2="70.0513" gradientUnits="userSpaceOnUse">
<stop stop-color="#E9882D"/>
<stop offset="0.431315" stop-color="#FFD089"/>
<stop offset="1" stop-color="#FEBE49"/>
</linearGradient>
<linearGradient id="paint1_linear_383_2494" x1="42.7567" y1="4.61763" x2="42.7567" y2="78.3616" gradientUnits="userSpaceOnUse">
<stop stop-color="white" stop-opacity="0.38"/>
<stop offset="1" stop-color="white" stop-opacity="0"/>
</linearGradient>
</defs>
</svg>
