<svg width="41" height="53" viewBox="0 0 41 53" fill="none" xmlns="http://www.w3.org/2000/svg">
<path d="M24.5765 0C23.1045 0.152836 22.4493 0.146095 21.5396 0.881038C20.8621 1.42835 20.6775 1.94082 20.4007 2.67313C21.5316 2.97345 22.7727 2.81105 23.7217 2.37554C24.3386 1.92001 24.6715 1.32656 24.5765 0Z" fill="#B1D455"/>
<path d="M16.7489 -2.08238e-05C18.2209 0.152815 18.876 0.146075 19.7858 0.881017C20.4633 1.42833 20.6478 1.9408 20.9247 2.67311C19.7938 2.97343 18.5527 2.81103 17.6037 2.37552C16.9867 1.91999 16.6539 1.32654 16.7489 -2.08238e-05Z" fill="#B1D455"/>
<path d="M20.4003 2.3178C20.4003 2.1731 20.5176 2.05581 20.6623 2.05581C20.807 2.05581 20.9243 2.1731 20.9243 2.3178V6.67603C20.9243 6.82073 20.807 6.93802 20.6623 6.93802C20.5176 6.93802 20.4003 6.82072 20.4003 6.67603V2.3178Z" fill="#B1D455"/>
<path d="M39.201 28.7318C39.201 42.1335 31.6715 52.9977 20.2033 52.9977C8.73519 52.9977 2.97287 41.818 2.08926 28.3851C2.08926 14.9834 9.59997 5.41917 20.2033 4.46588C31.6715 4.46588 39.201 15.3301 39.201 28.7318Z" fill="#3B96D2"/>
<path d="M13.5759 40.5587C13.5759 36.8986 16.5429 33.9315 20.203 33.9315C23.863 33.9315 26.8301 36.8986 26.8301 40.5586V51.6356C23.1621 53.2609 17.9956 53.6803 13.5759 51.5219V40.5587Z" fill="#2980B9"/>
<path d="M33.0474 20.9323C33.4892 29.1654 27.3039 29.5987 20.235 29.5987C13.1661 29.5987 6.9808 29.1654 7.41219 20.9323C7.86441 15.7324 12.7243 9.66595 20.235 9.66595C27.7457 9.66595 32.6056 15.7324 33.0474 20.9323Z" fill="#EBEFF0"/>
<path d="M33.0474 20.9323C33.4892 29.1654 27.3039 29.5987 20.235 29.5987C13.1661 29.5987 6.9808 29.1654 7.41219 20.9323C7.86441 15.7324 12.7243 9.66595 20.235 9.66595C27.7457 9.66595 32.6056 15.7324 33.0474 20.9323Z" fill="#EBEFF0"/>
<path d="M31.2802 20.9328C32.1639 27.8659 26.5636 27.8659 20.2393 27.8659C13.915 27.8659 8.3063 27.8659 9.1899 20.9328C9.59449 16.6372 13.5197 11.3997 20.2393 11.3997C26.9589 11.3997 30.885 16.6372 31.2802 20.9328Z" fill="#65DCB8"/>
<path d="M31.2802 20.9328C32.1639 27.8659 26.5636 27.8659 20.2393 27.8659C13.915 27.8659 8.3063 27.8659 9.1899 20.9328C9.59449 16.6372 13.5197 11.3997 20.2393 11.3997C26.9589 11.3997 30.885 16.6372 31.2802 20.9328Z" fill="#65DCB8"/>
<path d="M11.8087 21.7928C13.9364 20.8719 15.6595 21.1054 17.0708 22.4265" stroke="#464F5D" stroke-width="2" stroke-linecap="round"/>
<path d="M23.404 22.4261C25.2414 21.0277 26.9709 20.8454 28.6661 21.7924" stroke="#464F5D" stroke-width="2" stroke-linecap="round"/>
<path d="M26.9944 33.1516C23.5139 38.6379 23.119 44.5662 26.1124 46.3929C29.1057 48.2196 34.3537 45.2529 37.8342 39.7667C41.3146 34.2805 40.4657 30.6479 37.4724 28.8212C34.4791 26.9945 30.4749 27.6654 26.9944 33.1516Z" fill="#285680"/>
<path d="M29.8652 29.4975C25.365 33.9567 25.4026 36.8631 30.7936 40.153C36.1846 43.4429 38.1763 39.7082 39.2261 37.8501C40.2758 35.9919 42.4721 30.1757 39.3723 27.0718C36.9048 24.601 32.0852 26.9705 29.8652 29.4975Z" fill="#2980B9"/>
<path d="M13.9708 34.0169C17.4513 39.5032 17.8462 45.4315 14.8529 47.2582C11.8596 49.0849 6.61153 46.1182 3.13107 40.632C-0.349388 35.1458 0.499517 31.5132 3.49284 29.6865C6.48616 27.8598 10.4904 28.5307 13.9708 34.0169Z" fill="#285680"/>
<path d="M11.1 30.3628C15.6002 34.822 15.5626 37.7284 10.1716 41.0183C4.78064 44.3082 2.78894 40.5735 1.73918 38.7154C0.689427 36.8572 -1.50689 31.041 1.59291 27.9371C4.06043 25.4663 8.88002 27.8358 11.1 30.3628Z" fill="#2980B9"/>
<path d="M12.6933 39.9979H27.7147L24.1802 52.5642H16.2277L12.6933 39.9979Z" fill="#65341A"/>
<rect x="11.8092" y="39.1316" width="16.7887" height="1.73328" fill="#8D4D29"/>
<path d="M23.1118 34.6159C22.1809 34.7096 21.7667 34.7055 21.1914 35.1562C20.7629 35.4918 20.6462 35.8061 20.4711 36.2551C21.1863 36.4393 21.9711 36.3397 22.5713 36.0726C22.9614 35.7933 23.1719 35.4294 23.1118 34.6159Z" fill="#B1D455"/>
<path d="M17.7018 35.7593C18.6327 35.853 19.047 35.8489 19.6223 36.2995C20.0507 36.6352 20.1674 36.9494 20.3425 37.3985C19.6273 37.5826 18.8425 37.4831 18.2424 37.216C17.8522 36.9367 17.6417 36.5727 17.7018 35.7593Z" fill="#B1D455"/>
<path d="M20.2038 35.0195C20.2038 34.8974 20.3027 34.7985 20.4247 34.7985C20.5467 34.7985 20.6456 34.8974 20.6456 35.0195V39.1317H20.2038V35.0195Z" fill="#B1D455"/>
</svg>
