<svg width="163" height="163" viewBox="0 0 163 163" fill="none" xmlns="http://www.w3.org/2000/svg">
<path d="M93.9977 0.000122214C89.299 0.460529 87.2078 0.440223 84.304 2.65418C82.1415 4.30291 81.5523 5.84669 80.6685 8.05273C84.2783 8.9574 88.24 8.4682 91.2691 7.15624C93.2384 5.784 94.3009 3.99628 93.9977 0.000122214Z" fill="#B1D455"/>
<path d="M69.7723 5.94835e-05C74.4711 0.460466 76.5622 0.44016 79.4661 2.65412C81.6286 4.30285 82.2177 5.84663 83.1015 8.05266C79.4917 8.95733 75.5301 8.46814 72.5009 7.15618C70.5316 5.78394 69.4692 3.99621 69.7723 5.94835e-05Z" fill="#B1D455"/>
<path d="M80.6686 7.2986C80.6686 6.62681 81.2132 6.08221 81.885 6.08221C82.5568 6.08221 83.1014 6.62681 83.1014 7.2986V27.9773H80.6686V7.2986Z" fill="#B1D455"/>
<path d="M138.183 88.795C138.183 129.773 115.602 162.993 81.2096 162.993C46.817 162.993 29.536 128.809 26.886 87.735C26.886 46.7565 49.4105 17.5118 81.2096 14.597C115.602 14.597 138.183 47.8165 138.183 88.795Z" fill="#3B96D2"/>
<path d="M61.3354 114.706C61.3354 109.177 65.8178 104.695 71.3472 104.695H91.0726C96.6019 104.695 101.084 109.177 101.084 114.706V158.828C90.0841 163.798 74.5899 165.08 61.3354 158.481V114.706Z" fill="#2980B9"/>
<path d="M119.729 64.9457C121.054 90.12 102.504 91.445 81.3046 91.445C60.1052 91.445 41.5557 90.12 42.8494 64.9456C44.2056 49.0461 58.7802 30.4966 81.3046 30.4966C103.829 30.4966 118.404 49.0461 119.729 64.9457Z" fill="#EBEFF0"/>
<path d="M119.729 64.9457C121.054 90.12 102.504 91.445 81.3046 91.445C60.1052 91.445 41.5557 90.12 42.8494 64.9456C44.2056 49.0461 58.7802 30.4966 81.3046 30.4966C103.829 30.4966 118.404 49.0461 119.729 64.9457Z" fill="#EBEFF0"/>
<path d="M114.429 64.9458C117.079 86.1452 100.283 86.1452 81.3171 86.1452C62.3507 86.1452 45.5304 86.1452 48.1803 64.9458C49.3937 51.8114 61.1653 35.7965 81.3171 35.7965C101.469 35.7965 113.243 51.8113 114.429 64.9458Z" fill="#65DCB8"/>
<path d="M114.429 64.9458C117.079 86.1452 100.283 86.1452 81.3171 86.1452C62.3507 86.1452 45.5304 86.1452 48.1803 64.9458C49.3937 51.8114 61.1653 35.7965 81.3171 35.7965C101.469 35.7965 113.243 51.8113 114.429 64.9458Z" fill="#65DCB8"/>
<path d="M91.9047 54.3458C91.9047 51.4188 94.2776 49.046 97.2046 49.046C100.132 49.046 102.504 51.4188 102.504 54.3458V70.2454C102.504 73.1724 100.132 75.5453 97.2046 75.5453C94.2776 75.5453 91.9047 73.1724 91.9047 70.2454V54.3458Z" fill="#464F5D"/>
<path d="M60.1054 54.3458C60.1054 51.4188 62.4783 49.046 65.4053 49.046C68.3323 49.046 70.7052 51.4188 70.7052 54.3458V70.2454C70.7052 73.1724 68.3323 75.5453 65.4053 75.5453C62.4783 75.5453 60.1054 73.1724 60.1054 70.2454V54.3458Z" fill="#464F5D"/>
<path d="M160.858 100.18C156.211 80.9769 144.114 67.4253 133.837 69.9119C123.561 72.3984 118.998 89.9814 123.644 109.185C128.291 128.388 137.997 134.359 148.273 131.872C158.549 129.386 165.504 119.384 160.858 100.18Z" fill="#285680"/>
<path d="M162.79 114.154C162.527 94.9706 156.11 88.8212 137.603 93.2995C119.095 97.7778 123.052 110.043 124.897 116.271C126.742 122.499 134.808 139.663 148.093 139.686C158.668 139.705 163.634 124.318 162.79 114.154Z" fill="#2980B9"/>
<path d="M2.02454 102.613C6.67117 83.41 18.7685 69.8584 29.0446 72.3449C39.3208 74.8314 43.8844 92.4145 39.2378 111.618C34.5912 130.821 24.8851 136.792 14.609 134.305C4.33281 131.819 -2.62209 121.817 2.02454 102.613Z" fill="#285680"/>
<path d="M0.0919423 116.586C0.355333 97.4035 6.77207 91.2541 25.2795 95.7324C43.787 100.211 39.8301 112.475 37.985 118.703C36.14 124.931 28.0741 142.096 14.7889 142.119C4.2136 142.138 -0.751454 126.751 0.0919423 116.586Z" fill="#2980B9"/>
</svg>
