<svg width="118" height="102" viewBox="0 0 118 102" fill="none" xmlns="http://www.w3.org/2000/svg">
<path d="M28.4812 50.2295C16.6748 43.3549 9.03946 32.5035 0.795497 13.3186C-2.29165 6.13444 4.08286 -1.39961 11.7112 0.318401C28.6396 4.13092 37.5918 7.56669 43.7589 13.9528C54.8926 24.2894 60.6049 32.7368 63.5698 47.3472C64.734 53.0843 60.144 58.3971 54.2963 58.1239C46.5622 57.7626 38.6161 56.1309 28.4812 50.2295Z" fill="#91D95C"/>
<mask id="mask0_383_728" style="mask-type:alpha" maskUnits="userSpaceOnUse" x="0" y="0" width="64" height="59">
<path d="M28.4812 50.2295C16.6748 43.3549 9.03946 32.5035 0.795497 13.3186C-2.29165 6.13444 4.08286 -1.39961 11.7112 0.318401C28.6396 4.13092 37.5918 7.56669 43.7589 13.9528C54.8926 24.2894 60.6049 32.7368 63.5698 47.3472C64.734 53.0843 60.144 58.3971 54.2963 58.1239C46.5622 57.7626 38.6161 56.1309 28.4812 50.2295Z" fill="#91D95C"/>
</mask>
<g mask="url(#mask0_383_728)">
<path d="M76.1978 46.5024C76.1978 58.2357 67.5204 67.7475 56.8163 67.7475C46.1122 67.7475 44.1438 69.0447 44.1438 57.3113C44.1438 45.5779 53.9393 20.7846 64.6435 20.7846C75.3476 20.7846 76.1978 34.769 76.1978 46.5024Z" fill="#82C452"/>
</g>
<path d="M54.4416 49.3388C54.8223 46.9865 56.9386 45.3195 59.3162 45.4793C61.9836 45.6586 63.9469 48.0524 63.6263 50.7065C61.5469 67.92 60.7974 79.348 60.5375 96.7683C60.4976 99.4389 58.2326 101.544 55.5677 101.365C53.1871 101.205 51.3117 99.2664 51.2518 96.8812C50.7961 78.7297 51.5722 67.0712 54.4416 49.3388Z" fill="#A1EB6A"/>
<path d="M66.02 23.9417C74.1376 12.9528 85.7549 6.54272 105.722 0.433745C113.2 -1.8539 119.996 5.30204 117.459 12.6983C111.828 29.1118 107.439 37.6373 100.42 43.0735C88.9105 53.0378 79.1308 57.5356 63.9597 58.7887C58.1256 59.2706 53.3598 54.1298 54.5297 48.3939C56.0625 40.8784 59.0687 33.3516 66.02 23.9417Z" fill="#A1EB6A"/>
</svg>
