<svg width="10" height="6" viewBox="0 0 10 6" fill="none" xmlns="http://www.w3.org/2000/svg">
<path d="M0.530112 0.693898C1.85453 0.693898 3.17086 0.55999 4.4953 0.55999C5.19378 0.55999 5.89225 0.55999 6.59073 0.55999C6.99284 0.55999 7.47942 0.486574 7.87526 0.569909C7.98023 0.592008 8.06135 0.649262 8.17284 0.649262C8.29858 0.649262 8.38305 0.738535 8.49769 0.738535C8.54768 0.738535 9.00408 0.837052 9.00853 0.852605C9.09168 1.14365 9.04307 1.46367 9.09036 1.76517C9.18148 2.34604 9.09966 2.98932 9.05316 3.57046C9.01934 3.99324 8.84162 4.4804 8.73327 4.88971C8.68327 5.07861 8.69855 5.27468 8.69855 5.46998" stroke="black" stroke-linecap="round"/>
</svg>
