<svg width="35" height="43" viewBox="0 0 35 43" fill="none" xmlns="http://www.w3.org/2000/svg">
<path d="M17.3725 8.42594L17.3725 41.9651" stroke="black" stroke-width="2" stroke-linecap="round"/>
<path d="M17.3725 1.00596C9.95374 8.9912 8.76514 14.9559 15.2949 19.1112" stroke="black" stroke-width="2" stroke-linecap="round"/>
<path d="M17.6695 1.21349C25.0883 9.19873 25.9801 14.9559 19.4503 19.1112" stroke="black" stroke-width="2" stroke-linecap="round"/>
<path d="M33.9937 21.1887C31.3225 30.3896 28.3544 33.0609 23.2415 31.0693" stroke="black" stroke-width="2" stroke-linecap="round"/>
<path d="M33.9938 20.8919C24.551 19.271 21.3789 21.359 20.9343 26.828" stroke="black" stroke-width="2" stroke-linecap="round"/>
<path d="M18.2631 31.5769L28.9481 24.4535" stroke="black" stroke-width="2" stroke-linecap="round"/>
<path d="M1.00628 21.032C3.67754 30.2329 6.64561 32.9042 11.7585 30.9126" stroke="black" stroke-width="2" stroke-linecap="round"/>
<path d="M1.00616 20.7352C10.449 19.1144 13.6211 21.2023 14.0657 26.6713" stroke="black" stroke-width="2" stroke-linecap="round"/>
<path d="M16.7369 31.4202L6.05189 24.2968" stroke="black" stroke-width="2" stroke-linecap="round"/>
</svg>
