<svg width="20" height="23" viewBox="0 0 20 23" fill="none" xmlns="http://www.w3.org/2000/svg">
<path d="M19.958 0C16.0951 0.378502 14.376 0.361808 11.9887 2.18191C10.2109 3.53733 9.72657 4.80648 9 6.62007C11.9676 7.3638 15.2245 6.96163 17.7148 5.88307C19.3338 4.75494 20.2072 3.28525 19.958 0Z" fill="#B1D455"/>
<path d="M0.0420251 -5.15707e-05C3.90488 0.37845 5.62401 0.361757 8.01129 2.18186C9.78909 3.53728 10.2734 4.80643 11 6.62002C8.03235 7.36375 4.77547 6.96158 2.2852 5.88302C0.666232 4.75489 -0.207197 3.2852 0.0420251 -5.15707e-05Z" fill="#B1D455"/>
<path d="M9 6C9 5.44772 9.44772 5 10 5C10.5523 5 11 5.44772 11 6V23H9V6Z" fill="#B1D455"/>
</svg>
