<svg width="46" height="57" viewBox="0 0 46 57" fill="none" xmlns="http://www.w3.org/2000/svg">
<path d="M22.8302 10.8998L22.8302 55.6265" stroke="#306064" stroke-width="2" stroke-linecap="round"/>
<path d="M22.8302 1.00424C12.9367 11.6531 11.3517 19.6074 20.0595 25.1488" stroke="#306064" stroke-width="2" stroke-linecap="round"/>
<path d="M23.2254 1.28129C33.1189 11.9301 34.3082 19.6077 25.6003 25.1491" stroke="#306064" stroke-width="2" stroke-linecap="round"/>
<path d="M44.9955 27.9199C41.4332 40.19 37.4751 43.7523 30.6568 41.0964" stroke="#306064" stroke-width="2" stroke-linecap="round"/>
<path d="M44.9956 27.5239C32.403 25.3624 28.1727 28.1469 27.5799 35.4402" stroke="#306064" stroke-width="2" stroke-linecap="round"/>
<path d="M24.0166 41.7737L38.2659 32.2742" stroke="#306064" stroke-width="2" stroke-linecap="round"/>
<path d="M1.00447 27.7112C4.56678 39.9814 8.5249 43.5437 15.3432 40.8878" stroke="#306064" stroke-width="2" stroke-linecap="round"/>
<path d="M1.0044 27.3153C13.597 25.1538 17.8273 27.9382 18.4201 35.2315" stroke="#306064" stroke-width="2" stroke-linecap="round"/>
<path d="M21.9822 41.564L7.73292 32.0646" stroke="#306064" stroke-width="2" stroke-linecap="round"/>
</svg>
