<svg width="50" height="43" viewBox="0 0 50 43" fill="none" xmlns="http://www.w3.org/2000/svg">
<path d="M29.6701 10.5046L36.9719 2.13714C40.1722 -0.481094 43.8843 -0.341219 47.785 0.691411C49.4666 5.16857 50.7377 8.58857 48.7444 11.24C46.751 13.8914 41.4201 19.9061 41.4201 19.9061L36.218 15.5595L43.0524 6.20845L34.7528 14.3621L29.6701 10.5046Z" fill="black"/>
<path d="M18.315 34.129L34.493 15.3563" stroke="black" stroke-width="2"/>
<path d="M16.3664 42.7418C15.9439 43.1128 15.3027 43.08 14.9344 42.6685C14.566 42.2571 14.61 41.6228 15.0325 41.2518L16.3664 42.7418ZM15.0325 41.2518C16.8067 39.6941 17.8079 38.5797 18.1873 37.5866C18.511 36.7394 18.4291 35.836 17.4627 34.4888L19.1253 33.3104C20.3386 35.002 20.7221 36.5997 20.0849 38.2677C19.5034 39.7897 18.1175 41.2044 16.3664 42.7418L15.0325 41.2518Z" fill="black"/>
<path d="M9.99507 37.5458C9.68654 38.0043 9.81682 38.6266 10.2861 38.9357C10.7553 39.2449 11.3858 39.1238 11.6943 38.6654L9.99507 37.5458ZM11.6943 38.6654C13.0012 36.7234 13.9847 35.579 14.9499 35.053C15.7863 34.5972 16.7322 34.5456 18.2447 35.2604L19.1072 33.4569C17.1911 32.5515 15.5214 32.4416 13.9493 33.2984C12.5061 34.0849 11.2883 35.6241 9.99507 37.5458L11.6943 38.6654Z" fill="black"/>
<path d="M11.0765 38.2556L15.6995 41.997" stroke="black" stroke-width="2"/>
<path d="M20.2635 10.0376L12.2338 2.36591C8.80956 0.048289 5.12536 0.523796 1.33421 1.90547C0.0650707 6.51653 -0.891132 10.0376 1.3342 12.4976C3.55952 14.9575 9.41321 20.4647 9.41321 20.4647L14.2003 15.6648L6.54705 6.9712L15.5511 14.3397L20.2635 10.0376Z" fill="black"/>
<path d="M33.7117 32.5366L15.9 15.3063" stroke="black" stroke-width="2"/>
<path d="M36.4321 40.9375C36.8865 41.2687 37.522 41.1779 37.8516 40.7348C38.1811 40.2917 38.0799 39.664 37.6256 39.3328L36.4321 40.9375ZM37.6256 39.3328C35.7175 37.9422 34.6195 36.923 34.1517 35.9684C33.7527 35.154 33.7524 34.2469 34.5928 32.8176L32.8304 31.7947C31.7752 33.5893 31.5379 35.2151 32.3236 36.8185C33.0406 38.2816 34.5489 39.565 36.4321 40.9375L37.6256 39.3328Z" fill="black"/>
<path d="M42.3068 35.1858C42.6556 35.6144 42.5822 36.2459 42.1429 36.5963C41.7036 36.9467 41.0647 36.8833 40.7159 36.4546L42.3068 35.1858ZM40.7159 36.4546C39.2386 34.639 38.1554 33.5884 37.1465 33.152C36.2723 32.7738 35.3256 32.8081 33.884 33.6569L32.8618 31.939C34.688 30.8637 36.3409 30.6031 37.9841 31.3139C39.4927 31.9665 40.8448 33.3891 42.3068 35.1858L40.7159 36.4546Z" fill="black"/>
<path d="M41.294 35.9904L37.029 40.1352" stroke="black" stroke-width="2"/>
</svg>
